# xmcd
#
# Track frame offsets:
#	150
#	8918
#	31480
#	56039
#	77316
#	99811
#	130981
#	151241
#	171306
#	187751
#	216726
#	234057
#	252962
#	275338
#	294974
#	313514
#
# Disc length: 4592 seconds
#
# Revision: 0
# Processed by: cddbd v1.4PL0 Copyright (c) Steve Scherf et al.
# Submitted via: dBpowerAMP V4.0
#
DISCID=cb11ee10
DTITLE=Machine Gun Kelly - Holes In The Wall
DYEAR=1900
DGENRE=
TTITLE0=Hound Dog
TTITLE1=If You Love Me Like You Say
TTITLE2=Use Me
TTITLE3=Just Your Fool
TTITLE4=Dr. Feelgood
TTITLE5=Woke Up This Morning
TTITLE6=Can't Judge A Book
TTITLE7=It's To Late
TTITLE8=Got My Mojo Working
TTITLE9=T-Bone Shuffle
TTITLE10=634-5789
TTITLE11=Fever
TTITLE12=Hard Way
TTITLE13=Who's Been Talking
TTITLE14=Route 66
TTITLE15=Baby How Long
EXTD=
EXTT0=
EXTT1=
EXTT2=
EXTT3=
EXTT4=
EXTT5=
EXTT6=
EXTT7=
EXTT8=
EXTT9=
EXTT10=
EXTT11=
EXTT12=
EXTT13=
EXTT14=
EXTT15=
PLAYORDER=
